<svg xmlns="http://www.w3.org/2000/svg" xmlns:xlink="http://www.w3.org/1999/xlink" width="16" height="17" version="1.1" viewBox="0 0 16 17"><title>idea-bulb-glow-svgrepo-com</title><desc>Created with Sketch.</desc><g id="Page-1" fill="none" fill-rule="evenodd" stroke="none" stroke-width="1"><g id="idea-bulb-glow-svgrepo-com" stroke="#6B9BFA"><line id="Path" x1="13.463" x2="16" y1="5.943" y2="5.577"/><line id="Path" x1="12.683" x2="14.244" y1="3.749" y2="2.834"/><line id="Path" x1="11.122" x2="12.195" y1="2.194" y2="0"/><line id="Path" x1="8.055" x2="8.043" y1="1.829" y2=".091"/><line id="Path" x1="5.171" x2="4.293" y1="2.286" y2="0"/><line id="Path" x1="3.122" x2="1.561" y1="3.749" y2="2.926"/><line id="Path" x1="2.439" x2="0" y1="5.76" y2="5.394"/><path id="Path" d="M5.81268293,12.2514286 C5.81268293,10.7182098 4.8072045,9.43161335 4.26506567,8.48077998 C3.96386493,7.95280194 3.80578035,7.36282255 3.80487805,6.7633372 C3.80487805,4.74578764 5.76225141,3.10857143 7.90243902,3.10857143"/><path id="Path" d="M9.99219512,12.2514286 C9.99219512,10.7182098 10.9976735,9.43161335 11.5398124,8.48077998 C11.8410131,7.95280194 11.9990977,7.36282255 12,6.7633372 C12,4.74578764 10.0426266,3.10857143 7.90243902,3.10857143"/><rect id="Rectangle" width="6.049" height="1.28" x="4.976" y="12.16" stroke-width=".6" rx=".64"/><rect id="Rectangle" width="5.268" height="1.28" x="5.366" y="13.44" stroke-width=".6" rx=".64"/><path id="Path" d="M8.97242715,14.72 L8.97242715,14.9686605 C9.00271843,15.3271389 8.81497201,15.6711689 8.48650545,15.8590724 C8.15803888,16.0469759 7.74440014,16.0469759 7.41593358,15.8590724 C7.08746702,15.6711689 6.89972059,15.3271389 6.93001188,14.9686605 L6.93001188,14.72"/><path id="Path" d="M5.26829268,6.49142857 C5.30075138,5.90421683 5.58634214,5.35293812 6.06213918,4.95905872 C6.53793622,4.56517933 7.16489638,4.36102038 7.80487805,4.39156534"/></g></g></svg>