<svg xmlns="http://www.w3.org/2000/svg" xmlns:xlink="http://www.w3.org/1999/xlink" width="675" height="318" version="1.1" viewBox="0 0 675 318"><title>autodev-overview</title><desc>Created with Sketch.</desc><defs><rect id="path-1" width="121" height="142" x="0" y="0" rx="16"/><mask id="mask-2" width="121" height="142" x="0" y="0" fill="#fff" maskContentUnits="userSpaceOnUse" maskUnits="objectBoundingBox"><use xlink:href="#path-1"/></mask><rect id="path-3" width="121" height="241" x="0" y="0" rx="16"/><mask id="mask-4" width="121" height="241" x="0" y="0" fill="#fff" maskContentUnits="userSpaceOnUse" maskUnits="objectBoundingBox"><use xlink:href="#path-3"/></mask><rect id="path-5" width="120" height="186" x="0" y="0" rx="16"/><mask id="mask-6" width="120" height="186" x="0" y="0" fill="#fff" maskContentUnits="userSpaceOnUse" maskUnits="objectBoundingBox"><use xlink:href="#path-5"/></mask><rect id="path-7" width="121" height="241" x="0" y="0" rx="16"/><mask id="mask-8" width="121" height="241" x="0" y="0" fill="#fff" maskContentUnits="userSpaceOnUse" maskUnits="objectBoundingBox"><use xlink:href="#path-7"/></mask><rect id="path-9" width="121" height="142" x="413" y="119" rx="16"/><mask id="mask-10" width="121" height="142" x="0" y="0" fill="#fff" maskContentUnits="userSpaceOnUse" maskUnits="objectBoundingBox"><use xlink:href="#path-9"/></mask></defs><g id="Page-1" fill="none" fill-rule="evenodd" stroke="none" stroke-width="1"><g id="autodev-overview"><rect id="Rectangle" width="405" height="270" x="0" y="0" fill="#D8D8D8"/><rect id="Rectangle" width="270" height="270" x="405" y="0" fill="#011C32" fill-opacity=".256"/><rect id="Rectangle" width="675" height="47" x="0" y="271" fill="#011C32" fill-opacity=".313"/><line id="Line" x1=".5" x2="674.5" y1="270.5" y2="270.5" stroke="#000" stroke-dasharray="5 5" stroke-linecap="square" stroke-linejoin="round" stroke-opacity=".5"/><g id="Group" transform="translate(9.000000, 119.000000)"><text id="Chat" fill="#000" font-family="Helvetica" font-size="12" font-weight="normal"><tspan x="47.826" y="21">Chat</tspan></text><rect id="Rectangle" width="98" height="29" x="11.5" y="101.5" fill="#011C32" fill-opacity=".9" stroke="#011C32" rx="8"/><text id="Custom-Prompts" fill="#FFF" font-family="Helvetica" font-size="12" font-weight="normal"><tspan x="15.822" y="120">Custom Prompts</tspan></text><use id="Rectangle" stroke="#011C32" stroke-dasharray="5 5" stroke-width="2" mask="url(#mask-2)" xlink:href="#path-1"/><g id="chat-by-selection" transform="translate(11.000000, 34.000000)"><rect id="Rectangle" width="99" height="30" x="0" y="0" fill="#48A178" rx="8"/><text id="Chat" fill="#FFF" font-family="Helvetica" font-size="12" font-weight="normal"><tspan x="36.826" y="19">Chat</tspan></text></g><g id="chat" transform="translate(11.000000, 68.000000)"><rect id="Rectangle" width="99" height="30" x="0" y="0" fill="#48A178" rx="8"/><text id="Chat-By-Scene" fill="#FFF" font-family="Helvetica" font-size="12" font-weight="normal"><tspan x="9.978" y="19">Chat By Scene</tspan></text></g></g><g id="Group-2" transform="translate(144.000000, 20.000000)"><text id="Coding" fill="#000" font-family="Helvetica" font-size="12" font-weight="normal"><tspan x="43.486" y="19">Coding</tspan></text><use id="Rectangle" stroke="#011C32" stroke-dasharray="5 5" stroke-width="2" mask="url(#mask-4)" xlink:href="#path-3"/><g id="coding" transform="translate(11.000000, 31.000000)"><g id="commit-gen" transform="translate(0.000000, 170.000000)"><rect id="Rectangle" width="99" height="30" x="0" y="0" fill="#48A178" rx="8"/><text id="Comment-Gen" fill="#FFF" font-family="Helvetica" font-size="12" font-weight="normal"><tspan x="10.985" y="19">Document Gen</tspan></text></g><g id="refactor" transform="translate(0.000000, 136.000000)"><rect id="Rectangle" width="99" height="30" x="0" y="0" fill="#48A178" rx="8"/><text id="Refactor" fill="#FFF" font-family="Helvetica" font-size="10" font-weight="normal"><tspan x="10.32" y="18">Smart Refactoring</tspan></text></g><g id="bug-fix" transform="translate(0.000000, 102.000000)"><rect id="Rectangle" width="99" height="30" x="0" y="0" fill="#48A178" rx="8"/><text id="Bug-fix" fill="#FFF" font-family="Helvetica" font-size="12" font-weight="normal"><tspan x="31.657" y="19">Bug fix</tspan></text></g><g id="commit-msg" transform="translate(0.000000, 68.000000)"><rect id="Rectangle" width="99" height="30" x="0" y="0" fill="#48A178" rx="8"/><text id="Commit-Msg" fill="#FFF" font-family="Helvetica" font-size="12" font-weight="normal"><tspan x="16.332" y="19">Commit Msg</tspan></text></g><g id="code-complete" transform="translate(0.000000, 34.000000)"><rect id="Rectangle" width="99" height="30" x="0" y="0" fill="#48A178" rx="8"/><text id="Code-complete" fill="#FFF" font-family="Helvetica" font-size="12" font-weight="normal"><tspan x="9.644" y="19">Code complete</tspan></text></g><g id="text2code"><rect id="Rectangle" width="99" height="30" x="0" y="0" fill="#48A178" rx="8"/><text id="Text-2-code" fill="#FFF" font-family="Helvetica" font-size="12" font-weight="normal"><tspan x="19.314" y="19">Text 2 code</tspan></text></g></g></g><g id="Group-3" transform="translate(279.000000, 75.000000)"><text id="Quality" fill="#000" font-family="Helvetica" font-size="12" font-weight="normal"><tspan x="42.826" y="17">Quality</tspan></text><use id="Rectangle" stroke="#011C32" stroke-dasharray="5 5" stroke-width="2" mask="url(#mask-6)" xlink:href="#path-5"/><g id="quality" transform="translate(10.000000, 44.000000)"><g id="api-test-gen" transform="translate(0.000000, 102.000000)"><rect id="Rectangle" width="99" height="30" x="0" y="0" fill="#48A178" rx="8"/><text id="API-Test-Data" fill="#FFF" font-family="Helvetica" font-size="12" font-weight="normal"><tspan x="13.423" y="19">API Test Data</tspan></text></g><g id="unit-test" transform="translate(0.000000, 68.000000)"><rect id="Rectangle" width="99" height="30" x="0" y="0" fill="#48A178" rx="8"/><text id="Unit-Test" fill="#FFF" font-family="Helvetica" font-size="12" font-weight="normal"><tspan x="26.765" y="19">Unit Test</tspan></text></g><g id="code-review" transform="translate(0.000000, 34.000000)"><rect id="Rectangle" width="99" height="30" x="0" y="0" fill="#48A178" rx="8"/><text id="Code-Review" fill="#FFF" font-family="Helvetica" font-size="12" font-weight="normal"><tspan x="14.316" y="19">Code Review</tspan></text></g><g id="prepush" transform="translate(0.000000, 0.000000)"><rect id="Rectangle" width="99" height="30" x="0" y="0" fill="#48A178" rx="8"/><text id="Prepush-Review" fill="#FFF" font-family="Helvetica" font-size="12" font-weight="normal"><tspan x="6.313" y="19">Prepush Review</tspan></text></g></g></g><text id="DevOps" fill="#000" font-family="Helvetica" font-size="12" font-weight="normal"><tspan x="451.326" y="137">DevOps</tspan></text><g id="Group-4" transform="translate(548.000000, 20.000000)"><text id="AI-Agent" fill="#000" font-family="Helvetica" font-size="12" font-weight="normal"><tspan x="37.313" y="22">AI Agent</tspan></text><g id="agent" transform="translate(11.000000, 31.000000)"><g id="custom-rag" transform="translate(0.000000, 171.000000)"><rect id="Rectangle" width="99" height="30" x="0" y="0" fill="#000" rx="8"/><text id="Custom-Agent" fill="#FFF" font-family="Helvetica" font-size="12" font-weight="normal"><tspan x="12.31" y="19">Custom Agent</tspan></text></g><g id="crud"><rect id="Rectangle" width="99" height="30" x="0" y="0" fill="#000" rx="8"/><text id="AutoCRUD" fill="#FFF" font-family="Helvetica" font-size="12" font-weight="normal"><tspan x="20.325" y="19">AutoCRUD</tspan></text></g><g id="arkui" transform="translate(0.000000, 34.000000)"><rect id="Rectangle" width="99" height="30" x="0" y="0" fill="#000" rx="8"/><text id="Auto-ArkUI" fill="#FFF" font-family="Helvetica" font-size="12" font-weight="normal"><tspan x="21.318" y="19">Auto ArkUI</tspan></text></g><g id="counit" transform="translate(0.000000, 137.000000)"><rect id="Rectangle" width="99" height="30" x="0" y="0" fill="#CC850A" rx="8"/><text id="CoUnit" fill="#FFF" font-family="Helvetica" font-size="12" font-weight="normal"><tspan x="31.66" y="19">CoUnit</tspan></text></g><g id="autopage" transform="translate(0.000000, 103.000000)"><rect id="Rectangle" width="99" height="30" x="0" y="0" fill="#000" rx="8"/><text id="AutoPage" fill="#FFF" font-family="Helvetica" font-size="12" font-weight="normal"><tspan x="23.645" y="19">AutoPage</tspan></text></g><g id="autosql" transform="translate(0.000000, 68.000000)"><rect id="Rectangle" width="99" height="30" x="0" y="0" fill="#000" rx="8"/><text id="AutoSQL" fill="#FFF" font-family="Helvetica" font-size="12" font-weight="normal"><tspan x="25.651" y="19">AutoSQL</tspan></text></g></g><use id="Rectangle" stroke="#011C32" stroke-dasharray="5 5" stroke-width="2" mask="url(#mask-8)" xlink:href="#path-7"/></g><g id="custom-llm" transform="translate(40.000000, 280.000000)"><rect id="Rectangle" width="99" height="30" x="0" y="0" fill="#DA4167" rx="8"/><text id="Custom-AI/LLM" fill="#FFF" font-family="Helvetica" font-size="12" font-weight="normal"><tspan x="8.481" y="19">Custom AI/LLM</tspan></text></g><g id="team-prompts" transform="translate(149.000000, 280.000000)"><rect id="Rectangle" width="98" height="29" x=".5" y=".5" fill="#011C32" fill-opacity=".9" stroke="#011C32" rx="8"/><text id="Team-Prompts" fill="#FFF" font-family="Helvetica" font-size="12" font-weight="normal"><tspan x="13.322" y="19">Team Prompts</tspan></text></g><g id="spec" transform="translate(256.000000, 280.000000)"><rect id="Rectangle" width="98" height="29" x=".5" y=".5" fill="#011C32" fill-opacity=".9" stroke="#011C32" rx="8"/><text id="Custom-spec" fill="#FFF" font-family="Helvetica" font-size="12" font-weight="normal"><tspan x="15.487" y="19">Custom spec</tspan></text></g><g id="doc-gen" transform="translate(363.000000, 280.000000)"><rect id="Rectangle" width="98" height="29" x=".5" y=".5" fill="#011C32" fill-opacity=".9" stroke="#011C32" rx="8"/><text id="Custom-DocGen" fill="#FFF" font-family="Helvetica" font-size="12" font-weight="normal"><tspan x="5.15" y="19">Custom DocGen</tspan></text></g><g id="prompt-override" transform="translate(470.000000, 280.000000)"><rect id="Rectangle" width="98" height="29" x=".5" y=".5" fill="#011C32" fill-opacity=".9" stroke="#011C32" rx="8"/><text id="Prompt-Override" fill="#FFF" font-family="Helvetica" font-size="12" font-weight="normal"><tspan x="5.487" y="19">Prompt Override</tspan></text></g><use id="Rectangle" stroke="#011C32" stroke-dasharray="5 5" stroke-width="2" mask="url(#mask-10)" xlink:href="#path-9"/><g id="devops" transform="translate(424.000000, 153.000000)"><g id="online-bug" transform="translate(0.000000, 69.000000)"><rect id="Rectangle" width="99" height="30" x="0" y="0" fill="#CCC" rx="8"/><rect id="Rectangle" width="99" height="30" x="0" y="0" fill="#CCC" rx="8"/><text id="Online-Bug-fix" fill="#FFF" font-family="Helvetica" font-size="12" font-weight="normal"><tspan x="12.646" y="19">Online Bug fix</tspan></text></g><g id="dockerfile" transform="translate(0.000000, 35.000000)"><rect id="Rectangle" width="99" height="30" x="0" y="0" fill="#48A178" rx="8"/><text id="Dockerfile-config" fill="#FFF" font-family="Helvetica" font-size="12" font-weight="normal"><tspan x="5.647" y="19">Dockerfile config</tspan></text></g><g id="ci-cd"><rect id="Rectangle" width="99" height="30" x="0" y="0" fill="#48A178" rx="8"/><text id="CI/CD-config" fill="#FFF" font-family="Helvetica" font-size="12" font-weight="normal"><tspan x="15.989" y="19">CI/CD config</tspan></text></g></g><text id="Individual-Copilot" fill="#000" font-family="Helvetica" font-size="12" font-weight="normal"><tspan x="9.138" y="20">Individual Copilot</tspan></text><text id="R&amp;D-GPTs-(organizati" fill="#000" font-family="Helvetica" font-size="12" font-weight="normal"><tspan x="413.496" y="20">R&amp;D GPTs</tspan> <tspan x="418.043" y="34" font-size="8">(organization)</tspan></text><text id="Team-AI" fill="#000" font-family="Helvetica" font-size="12" font-weight="normal"><tspan x="617.82" y="299">Team AI</tspan></text></g></g></svg>